<?xml version="1.0" encoding="UTF-8"?>
<svg width="256" height="256" version="1.1"
     xmlns="http://www.w3.org/2000/svg"
     xmlns:xlink="http://www.w3.org/1999/xlink">
  <defs>
    <linearGradient id="Gradient" x1="0" x2="0" y1="0" y2="1">
      <stop offset="0%" style="stop-color:#1C71D8;stop-opacity:1" />
      <stop offset="100%" style="stop-color:#1C71D8;stop-opacity:1" />
    </linearGradient>
    <filter id="alpha-to-white">
      <feColorMatrix in="SourceGraphic" type="matrix"
                     values="0 0 0 0 1 0 0 0 0 1 0 0 0 0 1 0 0 0 1 0"/>
    </filter>
    <g id="child-svg"><svg xmlns="http://www.w3.org/2000/svg" viewBox="0 0 24 24" height="16px" width="16px"><path d="M12,10A2,2 0 0,1 14,12C14,12.5 13.82,12.94 13.53,13.29L16.7,22H14.57L12,14.93L9.43,22H7.3L10.47,13.29C10.18,12.94 10,12.5 10,12A2,2 0 0,1 12,10M12,8A4,4 0 0,0 8,12C8,12.5 8.1,13 8.28,13.46L7.4,15.86C6.53,14.81 6,13.47 6,12A6,6 0 0,1 12,6A6,6 0 0,1 18,12C18,13.47 17.47,14.81 16.6,15.86L15.72,13.46C15.9,13 16,12.5 16,12A4,4 0 0,0 12,8M12,4A8,8 0 0,0 4,12C4,14.36 5,16.5 6.64,17.94L5.92,19.94C3.54,18.11 2,15.23 2,12A10,10 0 0,1 12,2A10,10 0 0,1 22,12C22,15.23 20.46,18.11 18.08,19.94L17.36,17.94C19,16.5 20,14.36 20,12A8,8 0 0,0 12,4Z" /></svg></g>
  </defs>
  <rect
      width="200"
      height="200"
      fill="url(#Gradient)"
      ry="128"
      x="0"
      y="0" />
  <use xlink:href="#child-svg" filter="url(#alpha-to-white)"
       transform="matrix(8,0,0,8,37,37)" />
</svg>